<?xml version="1.0" encoding="UTF-8" standalone="no"?>
<svg
   xmlns:dc="http://purl.org/dc/elements/1.1/"
   xmlns:cc="http://creativecommons.org/ns#"
   xmlns:rdf="http://www.w3.org/1999/02/22-rdf-syntax-ns#"
   xmlns:svg="http://www.w3.org/2000/svg"
   xmlns="http://www.w3.org/2000/svg"
   viewBox="0 0 414.75333 83.240402"
   height="83.240402"
   width="414.75333"
   xml:space="preserve"
   id="svg2"
   version="1.1"><metadata
     id="metadata8"><rdf:RDF><cc:Work
         rdf:about=""><dc:format>image/svg+xml</dc:format><dc:type
           rdf:resource="http://purl.org/dc/dcmitype/StillImage" /></cc:Work></rdf:RDF></metadata><defs
     id="defs6"><clipPath
       id="clipPath18"
       clipPathUnits="userSpaceOnUse"><path
         id="path16"
         d="M 0,62.43 H 311.065 V 0 H 0 Z" /></clipPath><clipPath
       id="clipPath30"
       clipPathUnits="userSpaceOnUse"><path
         id="path28"
         d="M 56.598,57.284 38.057,9.747 C 37.605,8.588 36.592,8.423 36.178,8.405 v 0 C 35.784,8.4 34.837,8.462 34.277,9.436 v 0 c -10e-4,0 -0.002,0.003 -0.002,0.004 v 0 l -9.003,27.903 -0.158,0.392 c -1.554,3.186 -4.943,5 -8.568,4.44 v 0 c -2.634,-0.406 -4.86,-2.176 -6.028,-4.572 v 0 L 10.49,37.546 c 0,-10e-4 0,-0.002 0,-0.002 v 0 L 1.421,9.437 C 1.334,9.286 1.238,9.157 1.136,9.046 v 0 C 0.45,8.307 0,7.381 0,6.373 v 0 -0.089 C 0,4.018 2.583,2.645 4.405,3.99 v 0 c 1.024,0.755 1.872,1.765 2.466,2.981 v 0 l 0.092,0.19 9.069,28.105 c 0,0 0.001,0.003 0.001,0.004 v 0 c 0.537,0.927 1.439,1.032 1.816,1.032 v 0 c 0.376,0 1.278,-0.105 1.815,-1.032 v 0 c 0,-0.001 10e-4,-0.004 10e-4,-0.004 v 0 L 28.669,8.363 28.826,7.971 c 1.378,-2.824 3.408,-4.97 7.408,-4.97 v 0 c 3.256,0.132 6.205,2.539 7.388,5.576 v 0 l 18.542,46.536 c 0.505,1.298 1.688,1.359 2.046,1.342 v 0 c 0.352,-0.013 1.531,-0.16 1.938,-1.493 v 0 l 5.377,-17.625 c 1.045,-3.423 4.151,-5.724 7.732,-5.724 v 0 h 37.856 c 1.676,0 3.029,1.379 2.986,3.065 v 0 c -0.043,1.642 -1.482,2.908 -3.124,2.908 v 0 H 79.257 c -0.935,0 -1.746,0.601 -2.019,1.495 v 0 l -5.377,17.625 c -1.019,3.341 -3.934,5.587 -7.425,5.718 v 0 c -0.108,0.004 -0.214,0.006 -0.321,0.006 v 0 c -3.347,0 -6.286,-1.991 -7.517,-5.146 M 36.234,3.001 c -0.117,-0.006 0.115,0 0,0" /></clipPath><linearGradient
       id="linearGradient48"
       spreadMethod="pad"
       gradientTransform="matrix(173.83922,0,0,173.83922,-53.739403,32.714165)"
       gradientUnits="userSpaceOnUse"
       y2="0"
       x2="1"
       y1="0"
       x1="0"><stop
         id="stop36"
         offset="0"
         style="stop-opacity:1;stop-color:#36a9e1" /><stop
         id="stop38"
         offset="0.297297"
         style="stop-opacity:1;stop-color:#36a9e1" /><stop
         id="stop40"
         offset="0.35869387"
         style="stop-opacity:1;stop-color:#951b81" /><stop
         id="stop42"
         offset="0.426845"
         style="stop-opacity:1;stop-color:#951b81" /><stop
         id="stop44"
         offset="0.690161"
         style="stop-opacity:1;stop-color:#f18f34" /><stop
         id="stop46"
         offset="1"
         style="stop-opacity:1;stop-color:#e3312d" /></linearGradient><clipPath
       id="clipPath58"
       clipPathUnits="userSpaceOnUse"><path
         id="path56"
         d="M 0,62.43 H 311.065 V 0 H 0 Z" /></clipPath></defs><g
     transform="matrix(1.3333333,0,0,-1.3333333,0,83.2404)"
     id="g10"><g
       id="g12"><g
         clip-path="url(#clipPath18)"
         id="g14"><g
           transform="translate(22.4245,49.2962)"
           id="g20"><path
             id="path22"
             style="fill:#951b81;fill-opacity:1;fill-rule:nonzero;stroke:none"
             d="m 0,0 c 0,-2.38 -1.929,-4.309 -4.308,-4.309 -2.379,0 -4.308,1.929 -4.308,4.309 0,2.379 1.929,4.308 4.308,4.308 C -1.929,4.308 0,2.379 0,0" /></g></g></g><g
       id="g24"><g
         clip-path="url(#clipPath30)"
         id="g26"><g
           id="g32"><g
             id="g34"><path
               id="path50"
               style="fill:url(#linearGradient48);stroke:none"
               d="M 56.598,57.284 38.057,9.747 C 37.605,8.588 36.592,8.423 36.178,8.405 v 0 C 35.784,8.4 34.837,8.462 34.277,9.436 v 0 c -10e-4,0 -0.002,0.003 -0.002,0.004 v 0 l -9.003,27.903 -0.158,0.392 c -1.554,3.186 -4.943,5 -8.568,4.44 v 0 c -2.634,-0.406 -4.86,-2.176 -6.028,-4.572 v 0 L 10.49,37.546 c 0,-10e-4 0,-0.002 0,-0.002 v 0 L 1.421,9.437 C 1.334,9.286 1.238,9.157 1.136,9.046 v 0 C 0.45,8.307 0,7.381 0,6.373 v 0 -0.089 C 0,4.018 2.583,2.645 4.405,3.99 v 0 c 1.024,0.755 1.872,1.765 2.466,2.981 v 0 l 0.092,0.19 9.069,28.105 c 0,0 0.001,0.003 0.001,0.004 v 0 c 0.537,0.927 1.439,1.032 1.816,1.032 v 0 c 0.376,0 1.278,-0.105 1.815,-1.032 v 0 c 0,-0.001 10e-4,-0.004 10e-4,-0.004 v 0 L 28.669,8.363 28.826,7.971 c 1.378,-2.824 3.408,-4.97 7.408,-4.97 v 0 c 3.256,0.132 6.205,2.539 7.388,5.576 v 0 l 18.542,46.536 c 0.505,1.298 1.688,1.359 2.046,1.342 v 0 c 0.352,-0.013 1.531,-0.16 1.938,-1.493 v 0 l 5.377,-17.625 c 1.045,-3.423 4.151,-5.724 7.732,-5.724 v 0 h 37.856 c 1.676,0 3.029,1.379 2.986,3.065 v 0 c -0.043,1.642 -1.482,2.908 -3.124,2.908 v 0 H 79.257 c -0.935,0 -1.746,0.601 -2.019,1.495 v 0 l -5.377,17.625 c -1.019,3.341 -3.934,5.587 -7.425,5.718 v 0 c -0.108,0.004 -0.214,0.006 -0.321,0.006 v 0 c -3.347,0 -6.286,-1.991 -7.517,-5.146 M 36.234,3.001 c -0.117,-0.006 0.115,0 0,0" /></g></g></g></g><g
       id="g52"><g
         clip-path="url(#clipPath58)"
         id="g54"><path
           id="path60"
           style="fill:#ffffff;fill-opacity:1;fill-rule:nonzero;stroke:none"
           d="M 56.683,25 H 58.39 V 0 h -1.707 z" /><g
           transform="translate(83.0993,3e-4)"
           id="g62"><path
             id="path64"
             style="fill:#ffffff;fill-opacity:1;fill-rule:nonzero;stroke:none"
             d="m 0,0 h -1.723 l -14.488,21.946 h -0.134 c 0.134,-2.588 0.201,-4.54 0.201,-5.855 V 0 h -1.64 v 25 h 1.706 L -1.605,3.008 h 0.099 c -0.099,2.008 -0.15,3.915 -0.15,5.721 l 0,16.271 H 0 Z" /></g><g
           transform="translate(107.8098,3e-4)"
           id="g66"><path
             id="path68"
             style="fill:#ffffff;fill-opacity:1;fill-rule:nonzero;stroke:none"
             d="m 0,0 h -1.723 l -14.488,21.946 h -0.134 c 0.134,-2.588 0.201,-4.54 0.201,-5.855 V 0 h -1.64 v 25 h 1.707 L -1.605,3.008 h 0.1 c -0.1,2.008 -0.151,3.915 -0.151,5.721 l 0,16.271 H 0 Z" /></g><g
           transform="translate(115.2883,12.4944)"
           id="g70"><path
             id="path72"
             style="fill:#ffffff;fill-opacity:1;fill-rule:nonzero;stroke:none"
             d="m 0,0 c 0,-3.503 0.781,-6.21 2.342,-8.123 1.562,-1.913 3.804,-2.869 6.726,-2.869 2.944,0 5.195,0.948 6.75,2.844 1.557,1.896 2.334,4.612 2.334,8.148 0,3.524 -0.777,6.226 -2.334,8.105 -1.555,1.879 -3.795,2.82 -6.716,2.82 C 6.19,10.925 3.946,9.977 2.368,8.08 0.789,6.184 0,3.49 0,0 m 20.009,0 c 0,-3.882 -0.97,-6.952 -2.91,-9.21 -1.941,-2.259 -4.741,-3.284 -8.154,-3.284 -3.402,0 -5.95,1.025 -7.891,3.284 -1.94,2.258 -2.911,5.339 -2.911,9.243 0,3.893 0.979,6.956 2.937,9.194 1.957,2.236 4.63,3.354 8.022,3.354 3.413,0 6.084,-1.124 8.013,-3.371 C 19.044,6.962 20.009,3.892 20.009,0" /></g><g
           transform="translate(155.3733,25.0003)"
           id="g74"><path
             id="path76"
             style="fill:#ffffff;fill-opacity:1;fill-rule:nonzero;stroke:none"
             d="M 0,0 H 1.857 L -7.294,-25 H -8.8 l -9.117,25 h 1.823 l 6.157,-16.956 c 0.937,-2.51 1.567,-4.395 1.89,-5.655 0.224,0.836 0.664,2.135 1.322,3.898 z" /></g><g
           transform="translate(163.1535,10.4026)"
           id="g78"><path
             id="path80"
             style="fill:#ffffff;fill-opacity:1;fill-rule:nonzero;stroke:none"
             d="M 0,0 H 8.75 L 5.42,8.817 C 5.142,9.509 4.807,10.468 4.417,11.694 4.115,10.624 3.786,9.653 3.43,8.783 Z m 9.318,-1.539 h -9.937 l -3.413,-8.863 h -1.891 l 9.838,25 h 1.087 l 9.637,-25 h -1.924 z" /></g><g
           transform="translate(190.3059,3e-4)"
           id="g82"><path
             id="path84"
             style="fill:#ffffff;fill-opacity:1;fill-rule:nonzero;stroke:none"
             d="m 0,0 h -5.186 v 20.373 h -6.642 V 25 H 6.643 V 20.373 H 0 Z" /></g><g
           transform="translate(205.8996,13.8323)"
           id="g86"><path
             id="path88"
             style="fill:#ffffff;fill-opacity:1;fill-rule:nonzero;stroke:none"
             d="m 0,0 h 1.673 c 1.64,0 2.849,0.273 3.63,0.819 0.781,0.547 1.171,1.407 1.171,2.577 0,1.16 -0.399,1.986 -1.197,2.476 C 4.48,6.363 3.245,6.608 1.572,6.608 H 0 Z m 0,-4.216 v -9.386 h -5.187 v 24.77 H 1.94 c 3.324,0 5.783,-0.915 7.378,-2.125 1.595,-1.21 2.393,-3.048 2.393,-5.513 0,-1.439 -0.397,-2.718 -1.189,-3.84 C 9.73,-1.431 8.61,-2.309 7.16,-2.944 c 3.681,-5.499 6.078,-9.283 7.194,-10.888 H 8.6 l -5.84,9.616 z" /></g><g
           transform="translate(235.2942,10.4026)"
           id="g90"><path
             id="path92"
             style="fill:#ffffff;fill-opacity:1;fill-rule:nonzero;stroke:none"
             d="M 0,0 C -1.64,5.275 -2.563,8.259 -2.77,8.95 -2.976,9.642 -3.123,10.188 -3.212,10.591 -3.58,9.162 -4.635,5.633 -6.374,0 Z M 3.012,-10.402 1.238,-4.35 H -7.68 l -1.772,-6.052 h -5.588 l 8.632,25 h 6.341 l 8.666,-25 z" /></g><g
           transform="translate(261.8781,12.5608)"
           id="g94"><path
             id="path96"
             style="fill:#ffffff;fill-opacity:1;fill-rule:nonzero;stroke:none"
             d="M 0,0 C 0,5.254 -2.319,7.88 -6.96,7.88 H -9.72 V -8.047 h 2.225 C -2.498,-8.047 0,-5.365 0,0 m 5.388,0.134 c 0,-4.027 -1.147,-7.111 -3.439,-9.251 -2.292,-2.142 -5.602,-3.444 -9.929,-3.444 h -6.926 v 25 h 7.678 c 3.994,0 7.094,-1.364 9.302,-3.471 C 4.283,6.859 5.388,3.915 5.388,0.134" /></g><g
           transform="translate(286.4211,3e-4)"
           id="g98"><path
             id="path100"
             style="fill:#ffffff;fill-opacity:1;fill-rule:nonzero;stroke:none"
             d="M 0,0 H -14.087 V 25 H 0 v -4.56 h -8.9 v -5.37 h 8.282 V 10.821 H -8.9 V 4.514 H 0 Z" /></g><g
           transform="translate(296.7102,13.8323)"
           id="g102"><path
             id="path104"
             style="fill:#ffffff;fill-opacity:1;fill-rule:nonzero;stroke:none"
             d="m 0,0 h 1.673 c 1.64,0 2.849,0.273 3.631,0.819 0.78,0.547 1.171,1.407 1.171,2.577 0,1.16 -0.399,1.986 -1.197,2.476 C 4.48,6.363 3.246,6.608 1.573,6.608 H 0 Z m 0,-4.216 v -9.616 h -5.187 v 25 H 1.94 c 3.325,0 5.784,-0.915 7.379,-2.125 1.595,-1.21 2.392,-3.048 2.392,-5.513 0,-1.439 -0.396,-2.718 -1.188,-3.84 -0.792,-1.121 -1.913,-1.999 -3.362,-2.634 3.68,-5.499 6.078,-9.283 7.193,-10.888 H 8.6 l -5.839,9.616 z" /></g></g></g></g></svg>